

<svg version="1.1" xmlns="http://www.w3.org/2000/svg" width="483" height="87">
<path d="M0 0 C9.04767078 6.72853763 14.31091506 14.85564006 17.31640625 25.72265625 C18.61303277 36.48785795 17.72273071 46.17595107 12.31640625 55.72265625 C11.92066406 56.47675781 11.52492188 57.23085937 11.1171875 58.0078125 C9.94140625 59.97265625 9.94140625 59.97265625 7.31640625 62.72265625 C3.50390625 63.16015625 3.50390625 63.16015625 0.31640625 62.72265625 C-0.890625 60.67578125 -0.890625 60.67578125 -1.68359375 57.72265625 C-0.69976657 55.11093485 0.31271836 52.90181066 1.62890625 50.47265625 C6.34746548 41.01613395 7.17488781 34.83033031 4.265625 24.45703125 C3.08339978 21.05144419 1.61768728 18.49773044 -0.68359375 15.72265625 C-1.38484375 14.87703125 -2.08609375 14.03140625 -2.80859375 13.16015625 C-10.00211371 7.06130237 -17.78603956 4.38493193 -27.09765625 4.5078125 C-31.03065195 4.83457196 -34.17088914 5.97338601 -37.68359375 7.72265625 C-38.36421875 8.05136719 -39.04484375 8.38007813 -39.74609375 8.71875 C-46.32828465 12.32150222 -50.07138 17.68107932 -52.82421875 24.58203125 C-55.03418853 32.65846626 -54.78588359 41.40166037 -50.80078125 48.8359375 C-50.43210937 49.45855469 -50.0634375 50.08117188 -49.68359375 50.72265625 C-49.14734375 51.77453125 -48.61109375 52.82640625 -48.05859375 53.91015625 C-42.7205861 60.2314811 -34.66757516 64.19714337 -26.41996765 64.92144775 C-23.84515755 65.01500139 -21.27567521 65.05121549 -18.69921875 65.06640625 C-17.76180847 65.08102905 -16.82439819 65.09565186 -15.85858154 65.11071777 C-11.87151263 65.17270026 -7.88429744 65.21271965 -3.89697266 65.25439453 C-0.97672165 65.28806967 1.94319835 65.33316872 4.86328125 65.37890625 C5.76641052 65.38418335 6.66953979 65.38946045 7.60003662 65.39489746 C8.85714447 65.41501892 8.85714447 65.41501892 10.13964844 65.43554688 C10.87576355 65.44283813 11.61187866 65.45012939 12.37030029 65.4576416 C14.31640625 65.72265625 14.31640625 65.72265625 17.31640625 67.72265625 C18.41145665 70.24969562 18.46936329 71.31084885 17.50390625 73.91015625 C16.31640625 75.72265625 16.31640625 75.72265625 14.31640625 76.72265625 C11.41775929 76.84659425 8.54424021 76.91115551 5.64453125 76.92578125 C4.33352448 76.93433136 4.33352448 76.93433136 2.99603271 76.9430542 C1.13652763 76.95251891 -0.72299434 76.95904399 -2.58251953 76.96289062 C-5.38085044 76.97247559 -8.17840795 77.00343227 -10.9765625 77.03515625 C-27.26210482 77.133482 -41.33409969 76.11517654 -53.96484375 64.65234375 C-63.06532104 55.17833941 -66.21102395 44.53680238 -65.9609375 31.68359375 C-65.145471 20.03735391 -59.83750231 10.49705949 -51.55859375 2.47265625 C-36.81189789 -10.04953803 -15.94413404 -10.41615177 0 0 Z " fill="#EE590A" transform="translate(67.68359375,9.27734375)"/>
<path d="M0 0 C3.63 0 7.26 0 11 0 C12.65460841 4.26817679 14.30863883 8.53657697 15.9621582 12.80517578 C16.52352684 14.25412899 17.08504721 15.70302343 17.64672852 17.15185547 C18.45890577 19.24691183 19.27051813 21.34218631 20.08203125 23.4375 C20.32903275 24.07429688 20.57603424 24.71109375 20.83052063 25.3671875 C21.31102018 26.60844019 21.78955871 27.85045399 22.26602173 29.09326172 C22.78692255 30.44646462 23.31535407 31.79677942 23.84896851 33.14501953 C26 38.66874931 26 38.66874931 26 42 C26.66 42 27.32 42 28 42 C28.09982178 41.18450684 28.19964355 40.36901367 28.30249023 39.52880859 C29.13858059 35.29889961 30.56996251 31.53466663 32.16015625 27.5390625 C32.46948593 26.74849457 32.77881561 25.95792664 33.09751892 25.1434021 C34.0803985 22.63508858 35.07131248 20.13004057 36.0625 17.625 C36.73295607 15.91817849 37.40288367 14.21114929 38.07226562 12.50390625 C39.70873609 8.3335085 41.35241643 4.16601915 43 0 C46.63 0 50.26 0 54 0 C54 17.82 54 35.64 54 54 C51.69 54 49.38 54 47 54 C46.67 40.8 46.34 27.6 46 14 C44.92878906 16.80371094 43.85757813 19.60742188 42.75390625 22.49609375 C41.71866047 25.20019806 40.68249589 27.90394857 39.64624023 30.60766602 C38.9245736 32.49206293 38.20386808 34.3768282 37.48413086 36.26196289 C36.4515613 38.96597334 35.41558274 41.66865563 34.37890625 44.37109375 C34.05596085 45.21900986 33.73301544 46.06692596 33.40028381 46.9405365 C31.11387171 52.88612829 31.11387171 52.88612829 30 54 C27.66702567 54.04092937 25.33294775 54.04241723 23 54 C22.61666504 52.99622314 22.23333008 51.99244629 21.83837891 50.95825195 C20.41120209 47.22144742 18.98350958 43.48484008 17.55566406 39.74829102 C16.93866209 38.13343564 16.32179854 36.51852738 15.70507812 34.90356445 C14.81677364 32.57749617 13.92796568 30.2516208 13.0390625 27.92578125 C12.76502594 27.20787918 12.49098938 26.48997711 12.20864868 25.75032043 C10.83381344 22.15450538 9.42985489 18.57463723 8 15 C7.67 27.87 7.34 40.74 7 54 C4.69 54 2.38 54 0 54 C0 36.18 0 18.36 0 0 Z " fill="#FF4000" transform="translate(96,16)"/>
<path d="M0 0 C2.64 0 5.28 0 8 0 C8 7.59 8 15.18 8 23 C16.58 23 25.16 23 34 23 C34 15.41 34 7.82 34 0 C36.64 0 39.28 0 42 0 C42 17.82 42 35.64 42 54 C39.36 54 36.72 54 34 54 C34 45.75 34 37.5 34 29 C25.42 29 16.84 29 8 29 C8 37.25 8 45.5 8 54 C5.36 54 2.72 54 0 54 C0 36.18 0 18.36 0 0 Z " fill="#FF4100" transform="translate(344,16)"/>
<path d="M0 0 C2.64 0 5.28 0 8 0 C8 6.27 8 12.54 8 19 C9.98 18.01 11.96 17.02 14 16 C20.11748288 15.12361903 25.83966906 15.35000983 31 19 C36.13924408 23.9964873 37.06695989 30.06237686 37.3125 36.9375 C37.15116371 43.49178695 35.78149981 48.85306433 31.5625 53.9375 C25.68363548 58.669269 20.3851159 58.67943066 13 58 C10.63025211 57.24360446 9.08422349 56.38948233 7 55 C6.67 55.66 6.34 56.32 6 57 C4.02 57 2.04 57 0 57 C0 38.19 0 19.38 0 0 Z M9 27 C7.45041852 30.09916296 7.73318927 33.35071849 7.6875 36.75 C7.65849609 37.45382813 7.62949219 38.15765625 7.59960938 38.8828125 C7.53735859 44.03526184 8.61741773 46.90826783 12 51 C15.21107887 52.60553944 18.51670728 52.47469056 22 52 C25.24131783 50.16795079 26.62163374 48.73871508 28.3125 45.4375 C29.54013284 39.29933581 29.87292481 33.44418947 27.75 27.5 C25.39874036 24.13762798 25.39874036 24.13762798 22 22 C15.60888439 21.18842976 13.15010707 21.71804555 9 27 Z " fill="#FF4000" transform="translate(445,13)"/>
<path d="M0 0 C4.69747764 3.43717876 7.77610822 7.34983249 9.5625 12.875 C10.368517 20.71960727 10.63803573 28.44909238 5.5625 34.875 C2.11310908 38.45948456 -1.06276527 40.69680923 -6.14453125 41.078125 C-16.83927471 41.23955509 -16.83927471 41.23955509 -21.4375 37.875 C-28.04907402 30.96289989 -28.8433586 25.5840111 -28.6875 16.26171875 C-28.26718809 10.56780585 -26.78614111 7.472075 -23.0625 3.0625 C-16.53324682 -2.37854432 -7.88838059 -2.58165183 0 0 Z M-19.4375 9.875 C-21.34669075 15.60257225 -21.71902663 23.3285971 -19.6484375 29.05859375 C-17.92965034 31.68925654 -16.05288605 33.1314093 -13.4375 34.875 C-8.84367081 35.31956411 -6.55493887 35.53088803 -2.5625 33.1875 C1.96645356 28.25893289 1.93464525 23.17424904 1.81640625 16.7578125 C1.41197241 12.16593292 -0.09051282 9.37165242 -3.125 6 C-10.0038991 2.65350854 -14.58897909 4.78996587 -19.4375 9.875 Z " fill="#FF4000" transform="translate(189.4375,30.125)"/>
<path d="M0 0 C3.65257487 2.96771708 5.25671807 5.04442954 7 9.4375 C7 13.0675 7 16.6975 7 20.4375 C-1.91 20.4375 -10.82 20.4375 -20 20.4375 C-18.5315148 27.92086897 -18.5315148 27.92086897 -14 32.4375 C-8.6268947 35.12405265 -0.74989899 33.43748243 5 32.4375 C5 34.4175 5 36.3975 5 38.4375 C0.77564121 40.47265174 -2.77274825 40.73590709 -7.4375 40.75 C-8.71496094 40.76675781 -9.99242187 40.78351563 -11.30859375 40.80078125 C-16.86925191 40.25354188 -20.75461723 38.30590125 -24.3125 34 C-24.80363281 33.42378906 -25.29476563 32.84757812 -25.80078125 32.25390625 C-29.48637873 26.67148662 -28.59614588 18.79638941 -28 12.4375 C-26.53066809 7.37719996 -24.32598143 2.9102516 -19.9375 -0.1875 C-13.9544125 -2.93683999 -5.89983112 -2.93720041 0 0 Z M-19 9.4375 C-19.33 11.4175 -19.66 13.3975 -20 15.4375 C-13.73 15.4375 -7.46 15.4375 -1 15.4375 C-1.43224047 8.95196252 -1.43224047 8.95196252 -3.5625 6 C-6.40288076 4.1792431 -8.66397285 3.80609648 -12.03125 3.98828125 C-15.50591974 4.78111264 -16.9772457 6.61790309 -19 9.4375 Z " fill="#FF4000" transform="translate(291,30.5625)"/>
<path d="M0 0 C2.64 0 5.28 0 8 0 C8.01458252 0.8878418 8.02916504 1.77568359 8.04418945 2.69042969 C8.10534534 5.99327962 8.17951378 9.29530915 8.26245117 12.59765625 C8.29564794 14.02527914 8.32369631 15.45303163 8.34643555 16.88085938 C8.38008013 18.93675815 8.43239562 20.99147512 8.48828125 23.046875 C8.51446533 24.28276367 8.54064941 25.51865234 8.56762695 26.79199219 C9.02386899 30.17709687 9.61072657 31.60707715 12 34 C15.06436308 34.83208361 17.9016907 34.63053312 21 34 C24.03691535 31.78558255 25.64735362 30.35012779 26.60522461 26.68286133 C27.02052005 23.86054744 27.20969837 21.11234348 27.31640625 18.26171875 C27.35830078 17.19501953 27.40019531 16.12832031 27.44335938 15.02929688 C27.48267578 13.92650391 27.52199219 12.82371094 27.5625 11.6875 C27.60568359 10.56537109 27.64886719 9.44324219 27.69335938 8.28710938 C27.79914787 5.52485431 27.90123672 2.7625137 28 0 C30.31 0 32.62 0 35 0 C35 13.2 35 26.4 35 40 C33.02 40 31.04 40 29 40 C28.34 39.34 27.68 38.68 27 38 C26.2575 38.495 25.515 38.99 24.75 39.5 C19.91590111 41.92281806 14.25192386 41.72099089 9 41 C4.20561854 38.57229341 1.70799985 36.12399954 0 31 C-0.08397157 28.64319787 -0.10728187 26.28405919 -0.09765625 23.92578125 C-0.0962413 23.2419487 -0.09482635 22.55811615 -0.09336853 21.8535614 C-0.08777876 19.67316278 -0.07522822 17.49286749 -0.0625 15.3125 C-0.05748367 13.83268378 -0.052921 12.35286594 -0.04882812 10.87304688 C-0.03781271 7.24866443 -0.02055512 3.6243423 0 0 Z " fill="#FF4000" transform="translate(398,30)"/>
<path d="M0 0 C1.28648437 -0.00515625 2.57296875 -0.0103125 3.8984375 -0.015625 C7.49213815 0.24052976 10.28387947 0.94665267 13.625 2.25 C12.965 4.23 12.305 6.21 11.625 8.25 C10.77679688 8.08628906 9.92859375 7.92257813 9.0546875 7.75390625 C5.5604469 7.24051555 2.27872426 7.15149261 -1.25 7.1875 C-2.40242188 7.19652344 -3.55484375 7.20554687 -4.7421875 7.21484375 C-5.61101562 7.22644531 -6.47984375 7.23804688 -7.375 7.25 C-7.375 9.56 -7.375 11.87 -7.375 14.25 C-6.84132813 14.40855469 -6.30765625 14.56710938 -5.7578125 14.73046875 C9.49031131 19.50540025 9.49031131 19.50540025 13.8125 25.0625 C14.84101941 29.09746078 15.10948047 32.30760924 13.625 36.25 C11.13051985 39.27316101 8.35572644 41.00642452 4.625 42.25 C2.16887046 42.37139491 -0.29090196 42.42542192 -2.75 42.4375 C-4.05710937 42.45167969 -5.36421875 42.46585938 -6.7109375 42.48046875 C-10.11298963 42.2664804 -12.34183747 41.73144811 -15.375 40.25 C-15.375 37.94 -15.375 35.63 -15.375 33.25 C-14.4675 33.58 -13.56 33.91 -12.625 34.25 C-7.37327824 35.75973521 -1.78650168 35.80839471 3.625 35.25 C5.91228734 33.41116119 5.91228734 33.41116119 5.75 30.625 C5.70875 29.84125 5.6675 29.0575 5.625 28.25 C4.9959375 27.93546875 4.366875 27.6209375 3.71875 27.296875 C1.93541598 26.40520799 0.15290875 25.5118861 -1.62890625 24.6171875 C-3.31791767 23.77628566 -5.01220129 22.94576032 -6.71484375 22.1328125 C-7.40707031 21.80023438 -8.09929687 21.46765625 -8.8125 21.125 C-9.42996094 20.83367188 -10.04742187 20.54234375 -10.68359375 20.2421875 C-12.66542176 19.07963712 -13.96585388 18.07682716 -15.375 16.25 C-16.00032495 12.87549872 -15.88139347 9.63894095 -15.375 6.25 C-11.41488023 0.59268604 -6.592301 -0.02631657 0 0 Z " fill="#FF3F00" transform="translate(320.375,28.75)"/>
<path d="M0 0 C2.64 0 5.28 0 8 0 C15.57446809 19.34042553 15.57446809 19.34042553 19 29 C23.1420489 19.48794965 26.62005381 9.80300543 30 0 C32.97 0 35.94 0 39 0 C34.38370942 13.48680973 29.25855613 26.75174052 24 40 C21.03 40 18.06 40 15 40 C11.68626281 32.79656654 8.80077687 25.45515162 5.99853516 18.04077148 C5.24166405 16.04046927 4.47846146 14.04265691 3.71484375 12.04492188 C3.23139143 10.77097725 2.74830471 9.49689381 2.265625 8.22265625 C1.83024414 7.07547119 1.39486328 5.92828613 0.94628906 4.74633789 C0 2 0 2 0 0 Z " fill="#FF3F00" transform="translate(202,30)"/>
<path d="M0 0 C2.64 0 5.28 0 8 0 C8 13.2 8 26.4 8 40 C5.36 40 2.72 40 0 40 C0 26.8 0 13.6 0 0 Z " fill="#FF4200" transform="translate(246,30)"/>
<path d="M0 0 C2.61866316 2.09493053 4.41985348 3.91222527 6 6.875 C6 10.41389236 4.65125962 12.92524071 3 16 C0.38246269 18.24360341 -1.01189426 17.9995752 -4.5 17.875 C-8.405988 16.898503 -9.83194553 16.38216497 -12 13 C-12.55363882 10.22039065 -12.58151903 7.77646831 -12 5 C-8.57158589 0.54306166 -5.57446779 -0.65581974 0 0 Z " fill="#EF590A" transform="translate(34,48)"/>
<path d="M0 0 C2.61866316 2.09493053 4.41985348 3.91222527 6 6.875 C6 10.41389236 4.65125962 12.92524071 3 16 C0.39952145 18.22898161 -1.03326216 17.99940603 -4.5 17.9375 C-8 17 -8 17 -10.4375 14.875 C-12.44893783 11.17395439 -12.74163232 9.153141 -12 5 C-8.35740398 0.92376159 -5.51295534 -1.17296922 0 0 Z " fill="#EF590A" transform="translate(60,48)"/>
<path d="M0 0 C3.08364499 1.85018699 4.63905184 3.06153478 5.9375 6.4375 C6.0297023 10.21779419 4.92638234 12.70306473 2.75 15.75 C0.16270647 17.59806681 -1.84073634 17.87362945 -5 18 C-8.52906067 16.39588152 -9.82772908 15.25840638 -12 12 C-12.67092652 5.84984026 -12.67092652 5.84984026 -10.125 2.625 C-6.60778432 -0.06463552 -4.43371186 -0.43467763 0 0 Z " fill="#EF590A" transform="translate(60,22)"/>
<path d="M0 0 C4.38415647 0.78288508 5.80548156 2.13797613 8.5 5.625 C9.76509503 8.32386939 9.59268988 9.30830957 8.75 12.1875 C7.49519785 14.63436419 6.72898674 16.03286662 4.5 17.625 C0.90393206 18.71945546 -0.79673757 18.94466474 -4.25 17.375 C-7.43189561 14.9001923 -8.41764446 13.26031418 -8.9375 9.25 C-8.5 5.625 -8.5 5.625 -6.4375 2.6875 C-3.5 0.625 -3.5 0.625 0 0 Z " fill="#EF590A" transform="translate(30.5,21.375)"/>
<path d="M0 0 C3.0625 -0.25 3.0625 -0.25 6 0 C7 1 7 1 7.125 4 C7 7 7 7 6 8 C4.00041636 8.04080783 1.99954746 8.04254356 0 8 C-1.125 5.6875 -1.125 5.6875 -2 3 C-1.34 2.01 -0.68 1.02 0 0 Z " fill="#FF4100" transform="translate(247,15)"/>
<path d="M0 0 C2.5 -0.3125 2.5 -0.3125 5 0 C5.66 0.66 6.32 1.32 7 2 C6.44444444 6.55555556 6.44444444 6.55555556 5 8 C3.33382885 8.04063832 1.66611905 8.042721 0 8 C-1.125 5.6875 -1.125 5.6875 -2 3 C-1.34 2.01 -0.68 1.02 0 0 Z " fill="#EE5A0A" transform="translate(41,40)"/>
</svg>
